ffmpeg started on 2026-01-13 at 12:34:23
Report written to "D:\Convert\FFMetrics\reports\psnr_report-6.txt"
Log level: 32
Command line:
ffmpeg -hide_banner -nostdin -r 24000/1001 -i "F:\\Convert\\files\\[DC] Make Heroine ga Oosugiru - 07_Telegram_HEVC(97).mkv" -r 24000/1001 -i "F:\\Convert\\files\\[DC] Make Heroine ga Oosugiru - 07_Telegram.mp4" -lavfi "[0:v]settb=AVTB,setpts=PTS-STARTPTS,format=pix_fmts=yuv420p10le,fps=24000/1001,scale=1920:1080:flags=lanczos:param0=3:out_range=limited:out_color_matrix=bt709:out_chroma_loc=left,setsar=1/1,setdar=(1920/1080)*(1/1),colorspace=format=yuv420p10:range=tv:primaries=bt709:trc=bt709:space=bt709:fast=0[main];[1:v]settb=AVTB,setpts=PTS-STARTPTS,format=pix_fmts=yuv420p,fps=24000/1001,scale=1920:1080:flags=lanczos:param0=3:out_range=limited:out_color_matrix=bt709:out_chroma_loc=left,setsar=1.000,setdar=1.778,colorspace=format=yuv420p:range=tv:primaries=bt709:trc=bt709:space=bt709:fast=0[ref];[main][ref]psnr=eof_action=endall:stats_file='D\\:/Convert/FFMetrics/logs/psnr_logfile-6.txt'" -f null -
Input #0, matroska,webm, from 'F:\Convert\files\[DC] Make Heroine ga Oosugiru - 07_Telegram_HEVC(97).mkv':
  Metadata:
    COMPATIBLE_BRANDS: isomiso2avc1mp41
    MAJOR_BRAND     : isom
    MINOR_VERSION   : 512
    ENCODER         : Lavf61.7.100
  Duration: 00:24:06.79, start: -0.021000, bitrate: 1016 kb/s
  Stream #0:0: Video: hevc (Main 10), yuv420p10le(tv, bt709, progressive), 1920x1080 [SAR 1:1 DAR 16:9], 23.98 fps, 23.98 tbr, 1k tbn (default)
      Metadata:
        HANDLER_NAME    : VideoHandler
        VENDOR_ID       : [0][0][0][0]
        ENCODER         : Lavc61.19.100 libx265
        BPS             : 818928
        DURATION        : 00:24:06.569708333
        NUMBER_OF_FRAMES: 34683
        NUMBER_OF_BYTES : 148079567
        _STATISTICS_WRITING_APP: mkvpropedit v94.0 ('Initiate') 64-bit
        _STATISTICS_WRITING_DATE_UTC: 2026-01-12 10:29:02
        _STATISTICS_TAGS: BPS DURATION NUMBER_OF_FRAMES NUMBER_OF_BYTES
  Stream #0:1: Audio: aac (LC), 48000 Hz, stereo, fltp (default)
      Metadata:
        HANDLER_NAME    : SoundHandler
        VENDOR_ID       : [0][0][0][0]
        ENCODER         : Lavc61.19.100 aac
        BPS             : 193194
        DURATION        : 00:24:06.784000000
        NUMBER_OF_FRAMES: 67819
        NUMBER_OF_BYTES : 34938755
        _STATISTICS_WRITING_APP: mkvpropedit v94.0 ('Initiate') 64-bit
        _STATISTICS_WRITING_DATE_UTC: 2026-01-12 10:29:02
        _STATISTICS_TAGS: BPS DURATION NUMBER_OF_FRAMES NUMBER_OF_BYTES
Input #1, mov,mp4,m4a,3gp,3g2,mj2, from 'F:\Convert\files\[DC] Make Heroine ga Oosugiru - 07_Telegram.mp4':
  Metadata:
    major_brand     : isom
    minor_version   : 512
    compatible_brands: isomiso2avc1mp41
    encoder         : Lavf60.16.100
  Duration: 00:24:06.74, start: 0.000000, bitrate: 3764 kb/s
  Stream #1:0[0x1](und): Video: h264 (High) (avc1 / 0x31637661), yuv420p(tv, bt709, progressive), 1920x1080 [SAR 1:1 DAR 16:9], 3616 kb/s, 23.98 fps, 23.98 tbr, 24k tbn (default)
      Metadata:
        handler_name    : VideoHandler
        vendor_id       : [0][0][0][0]
        encoder         : Lavc60.31.102 h264_qsv
  Stream #1:1[0x2](und): Audio: aac (HE-AACv2) (mp4a / 0x6134706D), 48000 Hz, stereo, fltp, 144 kb/s (default)
      Metadata:
        handler_name    : SoundHandler
        vendor_id       : [0][0][0][0]
Stream mapping:
  Stream #0:0 (hevc) -> settb:default
  Stream #1:0 (h264) -> settb:default
  psnr:default -> Stream #0:0 (wrapped_avframe)
  Stream #0:1 -> #0:1 (aac (native) -> pcm_s16le (native))
Output #0, null, to 'pipe:':
  Metadata:
    COMPATIBLE_BRANDS: isomiso2avc1mp41
    MAJOR_BRAND     : isom
    MINOR_VERSION   : 512
    encoder         : Lavf61.7.100
  Stream #0:0: Video: wrapped_avframe, yuv420p10le(tv, bt709, progressive), 1920x1080 [SAR 1:1 DAR 16:9], q=2-31, 200 kb/s, 23.98 fps, 23.98 tbn
      Metadata:
        encoder         : Lavc61.19.100 wrapped_avframe
  Stream #0:1: Audio: pcm_s16le, 48000 Hz, stereo, s16, 1536 kb/s (default)
      Metadata:
        HANDLER_NAME    : SoundHandler
        VENDOR_ID       : [0][0][0][0]
        _STATISTICS_TAGS: BPS DURATION NUMBER_OF_FRAMES NUMBER_OF_BYTES
        BPS             : 193194
        DURATION        : 00:24:06.784000000
        NUMBER_OF_FRAMES: 67819
        NUMBER_OF_BYTES : 34938755
        _STATISTICS_WRITING_APP: mkvpropedit v94.0 ('Initiate') 64-bit
        _STATISTICS_WRITING_DATE_UTC: 2026-01-12 10:29:02
        encoder         : Lavc61.19.100 pcm_s16le
frame=  125 fps=0.0 q=-0.0 size=N/A time=00:00:05.21 bitrate=N/A speed=10.3x    frame=  311 fps=302 q=-0.0 size=N/A time=00:00:12.97 bitrate=N/A speed=12.6x    frame=  512 fps=330 q=-0.0 size=N/A time=00:00:21.35 bitrate=N/A speed=13.8x    frame=  703 fps=342 q=-0.0 size=N/A time=00:00:29.32 bitrate=N/A speed=14.3x    frame=  889 fps=345 q=-0.0 size=N/A time=00:00:37.07 bitrate=N/A speed=14.4x    frame= 1026 fps=332 q=-0.0 size=N/A time=00:00:42.79 bitrate=N/A speed=13.9x    frame= 1189 fps=329 q=-0.0 size=N/A time=00:00:49.59 bitrate=N/A speed=13.7x    frame= 1353 fps=328 q=-0.0 size=N/A time=00:00:56.43 bitrate=N/A speed=13.7x    frame= 1508 fps=325 q=-0.0 size=N/A time=00:01:02.89 bitrate=N/A speed=13.6x    frame= 1654 fps=321 q=-0.0 size=N/A time=00:01:08.98 bitrate=N/A speed=13.4x    frame= 1823 fps=321 q=-0.0 size=N/A time=00:01:16.03 bitrate=N/A speed=13.4x    frame= 1981 fps=321 q=-0.0 size=N/A time=00:01:22.62 bitrate=N/A speed=13.4x    frame= 2097 fps=313 q=-0.0 size=N/A time=00:01:27.46 bitrate=N/A speed=  13x    frame= 2247 fps=312 q=-0.0 size=N/A time=00:01:33.71 bitrate=N/A speed=  13x    frame= 2405 fps=311 q=-0.0 size=N/A time=00:01:40.30 bitrate=N/A speed=  13x    frame= 2531 fps=307 q=-0.0 size=N/A time=00:01:45.56 bitrate=N/A speed=12.8x    frame= 2702 fps=308 q=-0.0 size=N/A time=00:01:52.69 bitrate=N/A speed=12.9x    frame= 2878 fps=310 q=-0.0 size=N/A time=00:02:00.03 bitrate=N/A speed=12.9x    frame= 3058 fps=312 q=-0.0 size=N/A time=00:02:07.54 bitrate=N/A speed=  13x    frame= 3254 fps=316 q=-0.0 size=N/A time=00:02:15.71 bitrate=N/A speed=13.2x    frame= 3449 fps=319 q=-0.0 size=N/A time=00:02:23.85 bitrate=N/A speed=13.3x    frame= 3650 fps=322 q=-0.0 size=N/A time=00:02:32.23 bitrate=N/A speed=13.4x    frame= 3843 fps=324 q=-0.0 size=N/A time=00:02:40.28 bitrate=N/A speed=13.5x    frame= 4038 fps=326 q=-0.0 size=N/A time=00:02:48.41 bitrate=N/A speed=13.6x    frame= 4235 fps=328 q=-0.0 size=N/A time=00:02:56.63 bitrate=N/A speed=13.7x    frame= 4423 fps=330 q=-0.0 size=N/A time=00:03:04.47 bitrate=N/A speed=13.8x    frame= 4631 fps=333 q=-0.0 size=N/A time=00:03:13.15 bitrate=N/A speed=13.9x    frame= 4818 fps=334 q=-0.0 size=N/A time=00:03:20.95 bitrate=N/A speed=13.9x    frame= 5024 fps=336 q=-0.0 size=N/A time=00:03:29.54 bitrate=N/A speed=  14x    frame= 5217 fps=337 q=-0.0 size=N/A time=00:03:37.59 bitrate=N/A speed=14.1x    frame= 5417 fps=339 q=-0.0 size=N/A time=00:03:45.93 bitrate=N/A speed=14.1x    frame= 5606 fps=340 q=-0.0 size=N/A time=00:03:53.81 bitrate=N/A speed=14.2x    frame= 5812 fps=341 q=-0.0 size=N/A time=00:04:02.40 bitrate=N/A speed=14.2x    frame= 6002 fps=342 q=-0.0 size=N/A time=00:04:10.33 bitrate=N/A speed=14.3x    frame= 6198 fps=344 q=-0.0 size=N/A time=00:04:18.50 bitrate=N/A speed=14.3x    frame= 6392 fps=344 q=-0.0 size=N/A time=00:04:26.59 bitrate=N/A speed=14.4x    frame= 6591 fps=345 q=-0.0 size=N/A time=00:04:34.89 bitrate=N/A speed=14.4x    frame= 6790 fps=346 q=-0.0 size=N/A time=00:04:43.19 bitrate=N/A speed=14.5x    frame= 6985 fps=347 q=-0.0 size=N/A time=00:04:51.33 bitrate=N/A speed=14.5x    frame= 7170 fps=348 q=-0.0 size=N/A time=00:04:59.04 bitrate=N/A speed=14.5x    frame= 7369 fps=349 q=-0.0 size=N/A time=00:05:07.34 bitrate=N/A speed=14.5x    frame= 7555 fps=349 q=-0.0 size=N/A time=00:05:15.10 bitrate=N/A speed=14.6x    frame= 7740 fps=349 q=-0.0 size=N/A time=00:05:22.82 bitrate=N/A speed=14.6x    frame= 7932 fps=350 q=-0.0 size=N/A time=00:05:30.83 bitrate=N/A speed=14.6x    frame= 8121 fps=350 q=-0.0 size=N/A time=00:05:38.71 bitrate=N/A speed=14.6x    frame= 8317 fps=351 q=-0.0 size=N/A time=00:05:46.88 bitrate=N/A speed=14.6x    frame= 8504 fps=351 q=-0.0 size=N/A time=00:05:54.68 bitrate=N/A speed=14.6x    frame= 8700 fps=352 q=-0.0 size=N/A time=00:06:02.86 bitrate=N/A speed=14.7x    frame= 8880 fps=351 q=-0.0 size=N/A time=00:06:10.37 bitrate=N/A speed=14.7x    frame= 9061 fps=351 q=-0.0 size=N/A time=00:06:17.91 bitrate=N/A speed=14.7x    frame= 9260 fps=352 q=-0.0 size=N/A time=00:06:26.21 bitrate=N/A speed=14.7x    frame= 9452 fps=352 q=-0.0 size=N/A time=00:06:34.22 bitrate=N/A speed=14.7x    frame= 9648 fps=353 q=-0.0 size=N/A time=00:06:42.40 bitrate=N/A speed=14.7x    frame= 9843 fps=353 q=-0.0 size=N/A time=00:06:50.53 bitrate=N/A speed=14.7x    frame=10038 fps=354 q=-0.0 size=N/A time=00:06:58.66 bitrate=N/A speed=14.8x    frame=10223 fps=354 q=-0.0 size=N/A time=00:07:06.38 bitrate=N/A speed=14.8x    frame=10414 fps=354 q=-0.0 size=N/A time=00:07:14.35 bitrate=N/A speed=14.8x    frame=10598 fps=354 q=-0.0 size=N/A time=00:07:22.02 bitrate=N/A speed=14.8x    frame=10791 fps=355 q=-0.0 size=N/A time=00:07:30.07 bitrate=N/A speed=14.8x    frame=10982 fps=355 q=-0.0 size=N/A time=00:07:38.04 bitrate=N/A speed=14.8x    frame=11169 fps=355 q=-0.0 size=N/A time=00:07:45.84 bitrate=N/A speed=14.8x    frame=11366 fps=356 q=-0.0 size=N/A time=00:07:54.05 bitrate=N/A speed=14.8x    frame=11554 fps=356 q=-0.0 size=N/A time=00:08:01.89 bitrate=N/A speed=14.8x    frame=11750 fps=356 q=-0.0 size=N/A time=00:08:10.07 bitrate=N/A speed=14.9x    frame=11944 fps=356 q=-0.0 size=N/A time=00:08:18.16 bitrate=N/A speed=14.9x    frame=12136 fps=357 q=-0.0 size=N/A time=00:08:26.17 bitrate=N/A speed=14.9x    frame=12329 fps=357 q=-0.0 size=N/A time=00:08:34.22 bitrate=N/A speed=14.9x    frame=12522 fps=357 q=-0.0 size=N/A time=00:08:42.27 bitrate=N/A speed=14.9x    frame=12719 fps=357 q=-0.0 size=N/A time=00:08:50.48 bitrate=N/A speed=14.9x    frame=12914 fps=358 q=-0.0 size=N/A time=00:08:58.62 bitrate=N/A speed=14.9x    frame=13108 fps=358 q=-0.0 size=N/A time=00:09:06.71 bitrate=N/A speed=14.9x    frame=13300 fps=358 q=-0.0 size=N/A time=00:09:14.72 bitrate=N/A speed=14.9x    frame=13491 fps=358 q=-0.0 size=N/A time=00:09:22.68 bitrate=N/A speed=14.9x    frame=13683 fps=359 q=-0.0 size=N/A time=00:09:30.69 bitrate=N/A speed=  15x    frame=13876 fps=359 q=-0.0 size=N/A time=00:09:38.74 bitrate=N/A speed=  15x    frame=14066 fps=359 q=-0.0 size=N/A time=00:09:46.66 bitrate=N/A speed=  15x    frame=14247 fps=359 q=-0.0 size=N/A time=00:09:54.21 bitrate=N/A speed=  15x    frame=14441 fps=359 q=-0.0 size=N/A time=00:10:02.31 bitrate=N/A speed=  15x    frame=14633 fps=359 q=-0.0 size=N/A time=00:10:10.31 bitrate=N/A speed=  15x    frame=14829 fps=359 q=-0.0 size=N/A time=00:10:18.49 bitrate=N/A speed=  15x    frame=15019 fps=360 q=-0.0 size=N/A time=00:10:26.41 bitrate=N/A speed=  15x    frame=15174 fps=359 q=-0.0 size=N/A time=00:10:32.88 bitrate=N/A speed=  15x    frame=15367 fps=359 q=-0.0 size=N/A time=00:10:40.93 bitrate=N/A speed=  15x    frame=15564 fps=359 q=-0.0 size=N/A time=00:10:49.14 bitrate=N/A speed=  15x    frame=15762 fps=360 q=-0.0 size=N/A time=00:10:57.40 bitrate=N/A speed=  15x    frame=15954 fps=360 q=-0.0 size=N/A time=00:11:05.41 bitrate=N/A speed=  15x    frame=16150 fps=360 q=-0.0 size=N/A time=00:11:13.58 bitrate=N/A speed=  15x    frame=16346 fps=360 q=-0.0 size=N/A time=00:11:21.76 bitrate=N/A speed=  15x    frame=16533 fps=360 q=-0.0 size=N/A time=00:11:29.56 bitrate=N/A speed=  15x    frame=16730 fps=361 q=-0.0 size=N/A time=00:11:37.78 bitrate=N/A speed=  15x    frame=16925 fps=361 q=-0.0 size=N/A time=00:11:45.91 bitrate=N/A speed=  15x    frame=17121 fps=361 q=-0.0 size=N/A time=00:11:54.08 bitrate=N/A speed=15.1x    frame=17316 fps=361 q=-0.0 size=N/A time=00:12:02.22 bitrate=N/A speed=15.1x    frame=17505 fps=361 q=-0.0 size=N/A time=00:12:10.10 bitrate=N/A speed=15.1x    frame=17692 fps=361 q=-0.0 size=N/A time=00:12:17.90 bitrate=N/A speed=15.1x    frame=17885 fps=361 q=-0.0 size=N/A time=00:12:25.95 bitrate=N/A speed=15.1x    frame=18077 fps=361 q=-0.0 size=N/A time=00:12:33.96 bitrate=N/A speed=15.1x    frame=18259 fps=361 q=-0.0 size=N/A time=00:12:41.55 bitrate=N/A speed=15.1x    frame=18442 fps=361 q=-0.0 size=N/A time=00:12:49.18 bitrate=N/A speed=15.1x    frame=18638 fps=361 q=-0.0 size=N/A time=00:12:57.35 bitrate=N/A speed=15.1x    frame=18834 fps=362 q=-0.0 size=N/A time=00:13:05.53 bitrate=N/A speed=15.1x    frame=19024 fps=362 q=-0.0 size=N/A time=00:13:13.45 bitrate=N/A speed=15.1x    frame=19222 fps=362 q=-0.0 size=N/A time=00:13:21.71 bitrate=N/A speed=15.1x    frame=19413 fps=362 q=-0.0 size=N/A time=00:13:29.68 bitrate=N/A speed=15.1x    frame=19616 fps=362 q=-0.0 size=N/A time=00:13:38.15 bitrate=N/A speed=15.1x    frame=19814 fps=363 q=-0.0 size=N/A time=00:13:46.40 bitrate=N/A speed=15.1x    frame=20011 fps=363 q=-0.0 size=N/A time=00:13:54.62 bitrate=N/A speed=15.1x    frame=20206 fps=363 q=-0.0 size=N/A time=00:14:02.75 bitrate=N/A speed=15.1x    frame=20399 fps=363 q=-0.0 size=N/A time=00:14:10.80 bitrate=N/A speed=15.1x    frame=20576 fps=363 q=-0.0 size=N/A time=00:14:18.19 bitrate=N/A speed=15.1x    frame=20772 fps=363 q=-0.0 size=N/A time=00:14:26.36 bitrate=N/A speed=15.1x    frame=20968 fps=363 q=-0.0 size=N/A time=00:14:34.54 bitrate=N/A speed=15.1x    frame=21168 fps=363 q=-0.0 size=N/A time=00:14:42.88 bitrate=N/A speed=15.2x    frame=21365 fps=363 q=-0.0 size=N/A time=00:14:51.09 bitrate=N/A speed=15.2x    frame=21549 fps=363 q=-0.0 size=N/A time=00:14:58.77 bitrate=N/A speed=15.2x    frame=21731 fps=363 q=-0.0 size=N/A time=00:15:06.36 bitrate=N/A speed=15.1x    frame=21918 fps=363 q=-0.0 size=N/A time=00:15:14.16 bitrate=N/A speed=15.2x    frame=22103 fps=363 q=-0.0 size=N/A time=00:15:21.87 bitrate=N/A speed=15.1x    frame=22298 fps=363 q=-0.0 size=N/A time=00:15:30.01 bitrate=N/A speed=15.2x    frame=22489 fps=363 q=-0.0 size=N/A time=00:15:37.97 bitrate=N/A speed=15.2x    frame=22662 fps=363 q=-0.0 size=N/A time=00:15:45.19 bitrate=N/A speed=15.1x    frame=22836 fps=363 q=-0.0 size=N/A time=00:15:52.45 bitrate=N/A speed=15.1x    frame=23000 fps=363 q=-0.0 size=N/A time=00:15:59.29 bitrate=N/A speed=15.1x    frame=23182 fps=363 q=-0.0 size=N/A time=00:16:06.88 bitrate=N/A speed=15.1x    frame=23355 fps=362 q=-0.0 size=N/A time=00:16:14.09 bitrate=N/A speed=15.1x    frame=23535 fps=362 q=-0.0 size=N/A time=00:16:21.60 bitrate=N/A speed=15.1x    frame=23707 fps=362 q=-0.0 size=N/A time=00:16:28.77 bitrate=N/A speed=15.1x    frame=23874 fps=362 q=-0.0 size=N/A time=00:16:35.74 bitrate=N/A speed=15.1x    frame=24045 fps=361 q=-0.0 size=N/A time=00:16:42.87 bitrate=N/A speed=15.1x    frame=24209 fps=361 q=-0.0 size=N/A time=00:16:49.71 bitrate=N/A speed=15.1x    frame=24382 fps=361 q=-0.0 size=N/A time=00:16:56.93 bitrate=N/A speed=15.1x    frame=24558 fps=361 q=-0.0 size=N/A time=00:17:04.27 bitrate=N/A speed=  15x    frame=24726 fps=360 q=-0.0 size=N/A time=00:17:11.28 bitrate=N/A speed=  15x    frame=24904 fps=360 q=-0.0 size=N/A time=00:17:18.70 bitrate=N/A speed=  15x    frame=25069 fps=360 q=-0.0 size=N/A time=00:17:25.58 bitrate=N/A speed=  15x    frame=25248 fps=360 q=-0.0 size=N/A time=00:17:33.05 bitrate=N/A speed=  15x    frame=25424 fps=360 q=-0.0 size=N/A time=00:17:40.39 bitrate=N/A speed=  15x    frame=25609 fps=360 q=-0.0 size=N/A time=00:17:48.10 bitrate=N/A speed=  15x    frame=25788 fps=360 q=-0.0 size=N/A time=00:17:55.57 bitrate=N/A speed=  15x    frame=25971 fps=360 q=-0.0 size=N/A time=00:18:03.20 bitrate=N/A speed=  15x    frame=26153 fps=360 q=-0.0 size=N/A time=00:18:10.79 bitrate=N/A speed=  15x    frame=26335 fps=360 q=-0.0 size=N/A time=00:18:18.38 bitrate=N/A speed=  15x    frame=26508 fps=359 q=-0.0 size=N/A time=00:18:25.60 bitrate=N/A speed=  15x    frame=26684 fps=359 q=-0.0 size=N/A time=00:18:32.94 bitrate=N/A speed=  15x    frame=26854 fps=359 q=-0.0 size=N/A time=00:18:40.03 bitrate=N/A speed=  15x    frame=27008 fps=359 q=-0.0 size=N/A time=00:18:46.45 bitrate=N/A speed=  15x    frame=27171 fps=358 q=-0.0 size=N/A time=00:18:53.25 bitrate=N/A speed=14.9x    frame=27331 fps=358 q=-0.0 size=N/A time=00:18:59.93 bitrate=N/A speed=14.9x    frame=27509 fps=358 q=-0.0 size=N/A time=00:19:07.35 bitrate=N/A speed=14.9x    frame=27670 fps=358 q=-0.0 size=N/A time=00:19:14.06 bitrate=N/A speed=14.9x    frame=27843 fps=358 q=-0.0 size=N/A time=00:19:21.28 bitrate=N/A speed=14.9x    frame=28001 fps=357 q=-0.0 size=N/A time=00:19:27.87 bitrate=N/A speed=14.9x    frame=28169 fps=357 q=-0.0 size=N/A time=00:19:34.88 bitrate=N/A speed=14.9x    frame=28342 fps=357 q=-0.0 size=N/A time=00:19:42.09 bitrate=N/A speed=14.9x    frame=28505 fps=357 q=-0.0 size=N/A time=00:19:48.89 bitrate=N/A speed=14.9x    frame=28677 fps=356 q=-0.0 size=N/A time=00:19:56.06 bitrate=N/A speed=14.9x    frame=28831 fps=356 q=-0.0 size=N/A time=00:20:02.49 bitrate=N/A speed=14.9x    frame=28986 fps=356 q=-0.0 size=N/A time=00:20:08.95 bitrate=N/A speed=14.8x    frame=29144 fps=355 q=-0.0 size=N/A time=00:20:15.54 bitrate=N/A speed=14.8x    frame=29304 fps=355 q=-0.0 size=N/A time=00:20:22.22 bitrate=N/A speed=14.8x    frame=29460 fps=355 q=-0.0 size=N/A time=00:20:28.72 bitrate=N/A speed=14.8x    frame=29611 fps=354 q=-0.0 size=N/A time=00:20:35.02 bitrate=N/A speed=14.8x    frame=29764 fps=354 q=-0.0 size=N/A time=00:20:41.40 bitrate=N/A speed=14.8x    frame=29921 fps=354 q=-0.0 size=N/A time=00:20:47.95 bitrate=N/A speed=14.8x    frame=30058 fps=353 q=-0.0 size=N/A time=00:20:53.66 bitrate=N/A speed=14.7x    frame=30213 fps=353 q=-0.0 size=N/A time=00:21:00.13 bitrate=N/A speed=14.7x    frame=30373 fps=353 q=-0.0 size=N/A time=00:21:06.80 bitrate=N/A speed=14.7x    frame=30543 fps=353 q=-0.0 size=N/A time=00:21:13.89 bitrate=N/A speed=14.7x    frame=30709 fps=352 q=-0.0 size=N/A time=00:21:20.82 bitrate=N/A speed=14.7x    frame=30885 fps=352 q=-0.0 size=N/A time=00:21:28.16 bitrate=N/A speed=14.7x    frame=31044 fps=352 q=-0.0 size=N/A time=00:21:34.79 bitrate=N/A speed=14.7x    frame=31202 fps=352 q=-0.0 size=N/A time=00:21:41.38 bitrate=N/A speed=14.7x    frame=31380 fps=352 q=-0.0 size=N/A time=00:21:48.80 bitrate=N/A speed=14.7x    frame=31546 fps=352 q=-0.0 size=N/A time=00:21:55.73 bitrate=N/A speed=14.7x    frame=31710 fps=351 q=-0.0 size=N/A time=00:22:02.57 bitrate=N/A speed=14.7x    frame=31867 fps=351 q=-0.0 size=N/A time=00:22:09.11 bitrate=N/A speed=14.6x    frame=32038 fps=351 q=-0.0 size=N/A time=00:22:16.25 bitrate=N/A speed=14.6x    frame=32213 fps=351 q=-0.0 size=N/A time=00:22:23.55 bitrate=N/A speed=14.6x    frame=32392 fps=351 q=-0.0 size=N/A time=00:22:31.01 bitrate=N/A speed=14.6x    frame=32557 fps=351 q=-0.0 size=N/A time=00:22:37.89 bitrate=N/A speed=14.6x    frame=32706 fps=350 q=-0.0 size=N/A time=00:22:44.11 bitrate=N/A speed=14.6x    frame=32846 fps=350 q=-0.0 size=N/A time=00:22:49.95 bitrate=N/A speed=14.6x    frame=33006 fps=350 q=-0.0 size=N/A time=00:22:56.62 bitrate=N/A speed=14.6x    frame=33178 fps=350 q=-0.0 size=N/A time=00:23:03.79 bitrate=N/A speed=14.6x    frame=33336 fps=349 q=-0.0 size=N/A time=00:23:10.38 bitrate=N/A speed=14.6x    frame=33488 fps=349 q=-0.0 size=N/A time=00:23:16.72 bitrate=N/A speed=14.6x    frame=33629 fps=349 q=-0.0 size=N/A time=00:23:22.60 bitrate=N/A speed=14.5x    frame=33753 fps=348 q=-0.0 size=N/A time=00:23:27.78 bitrate=N/A speed=14.5x    frame=33873 fps=348 q=-0.0 size=N/A time=00:23:32.78 bitrate=N/A speed=14.5x    frame=34011 fps=347 q=-0.0 size=N/A time=00:23:38.54 bitrate=N/A speed=14.5x    frame=34157 fps=347 q=-0.0 size=N/A time=00:23:44.63 bitrate=N/A speed=14.5x    frame=34293 fps=346 q=-0.0 size=N/A time=00:23:50.30 bitrate=N/A speed=14.4x    frame=34413 fps=346 q=-0.0 size=N/A time=00:23:55.30 bitrate=N/A speed=14.4x    frame=34566 fps=346 q=-0.0 size=N/A time=00:24:01.69 bitrate=N/A speed=14.4x    [Parsed_psnr_16 @ 0000020809a156c0] PSNR y:49.181362 u:50.557925 v:50.624693 average:49.602417 min:38.022547 max:inf
[out#0/null @ 000002087c498a00] video:14903KiB audio:271276KiB subtitle:0KiB other streams:0KiB global headers:0KiB muxing overhead: unknown
frame=34683 fps=346 q=-0.0 Lsize=N/A time=00:24:06.57 bitrate=N/A speed=14.4x    
